# The Great Editor v0.0.1
mtllib floor_1.mtl
o floor_1
v 74.14782122105862 -112.53366936077646 0
v 74.14782122105862 -112.53366936077646 -0.1
v 178.82728385763986 -112.44682954741475 0
v 178.82728385763986 -112.44682954741475 -0.1
v 178.91845724695906 -10.272931138215824 0
v 178.91845724695906 -10.272931138215824 -0.1
v 75.03725613116849 -10.387834011418757 0
v 75.03725613116849 -10.387834011418757 -0.1
v 100.1814098006134 -61.21518076902038 0
v 100.1814098006134 -61.21518076902038 -0.1
v 100.1814098006134 -59.115180769020384 0
v 100.1814098006134 -59.115180769020384 -0.1
v 102.78140980061339 -59.115180769020384 0
v 102.78140980061339 -59.115180769020384 -0.1
v 102.78140980061339 -61.21518076902038 0
v 102.78140980061339 -61.21518076902038 -0.1
vt 74.14782122105862 -112.53366936077646 0
vt 178.82728385763986 -112.44682954741475 0
vt 178.91845724695906 -10.272931138215824 0
vt 75.03725613116849 -10.387834011418757 0
vt 100.1814098006134 -61.21518076902038 0
vt 100.1814098006134 -59.115180769020384 0
vt 102.78140980061339 -59.115180769020384 0
vt 102.78140980061339 -61.21518076902038 0
vn 0 0 1
vn 0 0 -1
usemtl floor_1
s off
f 7/4/1 1/1/1 9/5/1
f 10/5/2 2/1/2 8/4/2
f 7/4/1 9/5/1 11/6/1
f 12/6/2 10/5/2 8/4/2
f 7/4/1 11/6/1 13/7/1
f 14/7/2 12/6/2 8/4/2
f 7/4/1 13/7/1 5/3/1
f 6/3/2 14/7/2 8/4/2
f 5/3/1 13/7/1 15/8/1
f 16/8/2 14/7/2 6/3/2
f 5/3/1 15/8/1 3/2/1
f 4/2/2 16/8/2 6/3/2
f 3/2/1 15/8/1 1/1/1
f 2/1/2 16/8/2 4/2/2
f 1/1/1 15/8/1 9/5/1
f 10/5/2 16/8/2 2/1/2
