# The Great Editor v0.0.1
mtllib floor_1.mtl
o floor_1
v 28.788458657322522 -22.36201993632659 0
v 28.788458657322522 -22.36201993632659 -0.1
v 51.45664440607053 -22.36176481774737 0
v 51.45664440607053 -22.36176481774737 -0.1
v 51.44387859936307 -7.691047307084409 0
v 51.44387859936307 -7.691047307084409 -0.1
v 52.339387114670465 -7.691037228604259 0
v 52.339387114670465 -7.691037228604259 -0.1
v 52.339552296028856 -22.367983633946167 0
v 52.339552296028856 -22.367983633946167 -0.1
v 100.49146395694815 -22.427760379345788 0
v 100.49146395694815 -22.427760379345788 -0.1
v 101.20355243591492 -19.779816448721636 0
v 101.20355243591492 -19.779816448721636 -0.1
v 102.10347303653192 -17.398883436465425 0
v 102.10347303653192 -17.398883436465425 -0.1
v 103.86922595425416 -15.006521299465753 0
v 103.86922595425416 -15.006521299465753 -0.1
v 106.47643341021585 -12.626821982647742 0
v 106.47643341021585 -12.626821982647742 -0.1
v 109.42587697327566 -11.373234375306463 0
v 109.42587697327566 -11.373234375306463 -0.1
v 112.52281408236298 -10.842323630120907 0
v 112.52281408236298 -10.842323630120907 -0.1
v 115.81145439664934 -11.019233315975958 0
v 115.81145439664934 -11.019233315975958 -0.1
v 118.31853804706353 -11.963040146334036 0
v 118.31853804706353 -11.963040146334036 -0.1
v 121.099982371338 -13.721486009366341 0
v 121.099982371338 -13.721486009366341 -0.1
v 122.91364572328702 -15.706934269555468 0
v 122.91364572328702 -15.706934269555468 -0.1
v 124.1927827059855 -17.768744464307126 0
v 124.1927827059855 -17.768744464307126 -0.1
v 124.91824169424596 -19.906916809162844 0
v 124.91824169424596 -19.906916809162844 -0.1
v 125.43371575019863 -22.293310898722194 0
v 125.43371575019863 -22.293310898722194 -0.1
v 125.31922877665325 -24.870583976317715 0
v 125.31922877665325 -24.870583976317715 -0.1
v 124.30118785911041 -28.246937461236907 0
v 124.30118785911041 -28.246937461236907 -0.1
v 122.93700873367769 -30.48110623440808 0
v 122.93700873367769 -30.48110623440808 -0.1
v 121.4146343109888 -32.141909347486724 0
v 121.4146343109888 -32.141909347486724 -0.1
v 119.3386873144513 -33.70388198578335 0
v 119.3386873144513 -33.70388198578335 -0.1
v 117.14410273822801 -34.830845586746584 0
v 117.14410273822801 -34.830845586746584 -0.1
v 114.25751202994111 -35.42400569581807 0
v 114.25751202994111 -35.42400569581807 -0.1
v 113.84229785918437 -35.443806347771066 0
v 113.84229785918437 -35.443806347771066 -0.1
v 113.83652114272199 -107.4161150403933 0
v 113.83652114272199 -107.4161150403933 -0.1
v 74.71293685603746 -107.41655535587984 0
v 74.71293685603746 -107.41655535587984 -0.1
v 74.7129968245253 -112.74496705219384 0
v 74.7129968245253 -112.74496705219384 -0.1
v 80.4921273547046 -118.51899171484533 0
v 80.4921273547046 -118.51899171484533 -0.1
v 73.64054157595967 -125.46473682720251 0
v 73.64054157595967 -125.46473682720251 -0.1
v 78.11756142946331 -129.9105482920075 0
v 78.11756142946331 -129.9105482920075 -0.1
v 110.7443058962476 -129.91018109505643 0
v 110.7443058962476 -129.91018109505643 -0.1
v 110.74430213091838 -129.57561831187516 0
v 110.74430213091838 -129.57561831187516 -0.1
v 113.87353449682804 -129.5755830940009 0
v 113.87353449682804 -129.5755830940009 -0.1
v 113.57307740645723 -189.18679185180073 0
v 113.57307740645723 -189.18679185180073 -0.1
v 113.88415707538995 -189.1867883507617 0
v 113.88415707538995 -189.1867883507617 -0.1
v 113.88444447886711 -214.72360117314892 0
v 113.88444447886711 -214.72360117314892 -0.1
v 77.37843988742993 -214.72401202914452 0
v 77.37843988742993 -214.72401202914452 -0.1
v 77.38685216345932 -221.0747982397251 0
v 77.38685216345932 -221.0747982397251 -0.1
v 73.97249326555321 -221.07483666654943 0
v 73.97249326555321 -221.07483666654943 -0.1
v 73.97249686167224 -221.3943645290228 0
v 73.97249686167224 -221.3943645290228 -0.1
v 73.63471230976783 -221.39436833061131 0
v 73.63471230976783 -221.39436833061131 -0.1
v 68.66917889846954 -221.37083370855143 0
v 68.66917889846954 -221.37083370855143 -0.1
v 68.66917598684593 -221.11212568008463 0
v 68.66917598684593 -221.11212568008463 -0.1
v 65.25728711162755 -221.1121640791101 0
v 65.25728711162755 -221.1121640791101 -0.1
v 65.25721571097817 -214.76796450182542 0
v 65.25721571097817 -214.76796450182542 -0.1
v 28.730627597143254 -214.7683755894778 0
v 28.730627597143254 -214.7683755894778 -0.1
v 28.73047388299707 -201.11033144153893 0
v 28.73047388299707 -201.11033144153893 -0.1
v 27.640549523964278 -201.11034370806775 0
v 27.640549523964278 -201.11034370806775 -0.1
v 27.640032379404893 -155.16022526881665 0
v 27.640032379404893 -155.16022526881665 -0.1
v 28.73081587676385 -155.16021299261868 0
v 28.73081587676385 -155.16021299261868 -0.1
v 28.730528040189235 -129.58491793270525 0
v 28.730528040189235 -129.58491793270525 -0.1
v 52.85155249591481 -129.58464646318598 0
v 52.85155249591481 -129.58464646318598 -0.1
v 52.85148447302278 -123.54057254117542 0
v 52.85148447302278 -123.54057254117542 -0.1
v 36.23782549592037 -123.54075951922124 0
v 36.23782549592037 -123.54075951922124 -0.1
v 36.237712741513604 -113.52213271321381 0
v 36.237712741513604 -113.52213271321381 -0.1
v 52.89726402420541 -113.52194521867408 0
v 52.89726402420541 -113.52194521867408 -0.1
v 52.8971951383415 -107.40119320105319 0
v 52.8971951383415 -107.40119320105319 -0.1
v 28.806526903473806 -107.40146432892908 0
v 28.806526903473806 -107.40146432892908 -0.1
v 28.806379252289236 -94.28213570892676 0
v 28.806379252289236 -94.28213570892676 -0.1
v 26.784532660487287 -93.59524157446583 0
v 26.784532660487287 -93.59524157446583 -0.1
v 26.783906771802222 -37.98282394998479 0
v 26.783906771802222 -37.98282394998479 -0.1
v 27.066590218374298 -37.19556368222023 0
v 27.066590218374298 -37.19556368222023 -0.1
v 28.239962775116915 -37.5854202895032 0
v 28.239962775116915 -37.5854202895032 -0.1
v 28.788611369099883 -35.931000077786216 0
v 28.788611369099883 -35.931000077786216 -0.1
v 73.75459935400971 -29.15313858679747 0
v 73.75459935400971 -29.15313858679747 -0.1
v 67.0024312255245 -22.386186424870985 0
v 67.0024312255245 -22.386186424870985 -0.1
v 90.00623758316372 -22.41474380978949 0
v 90.00623758316372 -22.41474380978949 -0.1
v 112.45988474716776 -189.1894175926112 0
v 112.45988474716776 -189.1894175926112 -0.1
v 42.177722014534694 -46.59178948880389 0
v 42.177722014534694 -46.59178948880389 -0.1
v 42.20086356203674 -44.86893050473404 0
v 42.20086356203674 -44.86893050473404 -0.1
v 49.146316430230236 -44.8379591549776 0
v 49.146316430230236 -44.8379591549776 -0.1
v 70.63187574187126 -30.944394359207685 0
v 70.63187574187126 -30.944394359207685 -0.1
v 75.421462364447 -32.05900639253743 0
v 75.421462364447 -32.05900639253743 -0.1
v 93.47478885769998 -22.419049738656934 0
v 93.47478885769998 -22.419049738656934 -0.1
v 113.84156465725741 -44.57879432327358 0
v 113.84156465725741 -44.57879432327358 -0.1
v 112.20355918606852 -47.81924701431859 0
v 112.20355918606852 -47.81924701431859 -0.1
v 113.84152832911319 -45.03140791897902 0
v 113.84152832911319 -45.03140791897902 -0.1
v 113.84007171619909 -63.179398214493986 0
v 113.84007171619909 -63.179398214493986 -0.1
v 112.18587382944483 -69.95763099710759 0
v 112.18587382944483 -69.95763099710759 -0.1
v 113.8400151726116 -63.88387671198383 0
v 113.8400151726116 -63.88387671198383 -0.1
v 113.83998475541893 -64.2628455595447 0
v 113.83998475541893 -64.2628455595447 -0.1
v 112.49460987276814 -167.06810879228325 0
v 112.49460987276814 -167.06810879228325 -0.1
v 113.59618186806885 -184.602826525281 0
v 113.59618186806885 -184.602826525281 -0.1
v 78.1321537973398 -189.19073466646262 0
v 78.1321537973398 -189.19073466646262 -0.1
v 33.87361924811946 -107.40140730145392 0
v 33.87361924811946 -107.40140730145392 -0.1
v 78.15340026285247 -69.97480300959734 0
v 78.15340026285247 -69.97480300959734 -0.1
v 49.1308722862709 -46.64576535442763 0
v 49.1308722862709 -46.64576535442763 -0.1
v 78.22539034252861 -47.83831567944093 0
v 78.22539034252861 -47.83831567944093 -0.1
v 72.29873875230854 -33.850262164947644 0
v 72.29873875230854 -33.850262164947644 -0.1
v 103.68226214234174 -46.08565322887402 0
v 103.68226214234174 -46.08565322887402 -0.1
v 106.8049857544802 -44.2943974564638 0
v 106.8049857544802 -44.2943974564638 -0.1
v 113.84209823312119 -37.93095432123501 0
v 113.84209823312119 -37.93095432123501 -0.1
v 113.84165021712138 -43.51280104099643 0
v 113.84165021712138 -43.51280104099643 -0.1
v 109.78916581575189 -47.829118480375584 0
v 109.78916581575189 -47.829118480375584 -0.1
v 110.72878217191627 -131.0084464301896 0
v 110.72878217191627 -131.0084464301896 -0.1
v 110.71708036448841 -131.3596193527523 0
v 110.71708036448841 -131.3596193527523 -0.1
v 95.15328469505144 -146.93228523518752 0
v 95.15328469505144 -146.93228523518752 -0.1
v 78.14876550662659 -167.0768361380558 0
v 78.14876550662659 -167.0768361380558 -0.1
v 79.24089720652074 -131.0137050578182 0
v 79.24089720652074 -131.0137050578182 -0.1
v 48.08462507683827 -123.54062618968571 0
v 48.08462507683827 -123.54062618968571 -0.1
v 48.07700210372658 -123.53096096930769 0
v 48.07700210372658 -123.53096096930769 -0.1
v 48.07695631531545 -119.46249911238733 0
v 48.07695631531545 -119.46249911238733 -0.1
v 49.3173350606936 -119.03522217762563 0
v 49.3173350606936 -119.03522217762563 -0.1
v 48.07694544366672 -118.49651477073655 0
v 48.07694544366672 -118.49651477073655 -0.1
v 49.2842053683838 -117.98214254018328 0
v 49.2842053683838 -117.98214254018328 -0.1
v 48.07693500982393 -117.56943103089255 0
v 48.07693500982393 -117.56943103089255 -0.1
v 48.07688945809778 -113.52199946946963 0
v 48.07688945809778 -113.52199946946963 -0.1
v 79.35136955911338 -129.91053440614206 0
v 79.35136955911338 -129.91053440614206 -0.1
v 103.41340497623843 -129.91026360051353 0
v 103.41340497623843 -129.91026360051353 -0.1
v 52.9173339192482 -119.03235540146699 0
v 52.9173339192482 -119.03235540146699 -0.1
v 52.92000161372916 -122.38235433928864 0
v 52.92000161372916 -122.38235433928864 -0.1
v 49.32000275517456 -122.38522111544728 0
v 49.32000275517456 -122.38522111544728 -0.1
v 52.8842042269384 -117.97927576402464 0
v 52.8842042269384 -117.97927576402464 -0.1
v 49.28153767390284 -114.63214360236162 0
v 49.28153767390284 -114.63214360236162 -0.1
v 52.88153653245744 -114.62927682620298 0
v 52.88153653245744 -114.62927682620298 -0.1
v 103.30195577895296 -47.85356954054096 0
v 103.30195577895296 -47.85356954054096 -0.1
v 105.47351791475195 -49.20837684101248 0
v 105.47351791475195 -49.20837684101248 -0.1
v 108.59624152689041 -47.417121068602256 0
v 108.59624152689041 -47.417121068602256 -0.1
v 104.93298967836007 -50.64195621689377 0
v 104.93298967836007 -50.64195621689377 -0.1
vt 28.788458657322522 -22.36201993632659 0
vt 51.45664440607053 -22.36176481774737 0
vt 51.44387859936307 -7.691047307084409 0
vt 52.339387114670465 -7.691037228604259 0
vt 52.339552296028856 -22.367983633946167 0
vt 100.49146395694815 -22.427760379345788 0
vt 101.20355243591492 -19.779816448721636 0
vt 102.10347303653192 -17.398883436465425 0
vt 103.86922595425416 -15.006521299465753 0
vt 106.47643341021585 -12.626821982647742 0
vt 109.42587697327566 -11.373234375306463 0
vt 112.52281408236298 -10.842323630120907 0
vt 115.81145439664934 -11.019233315975958 0
vt 118.31853804706353 -11.963040146334036 0
vt 121.099982371338 -13.721486009366341 0
vt 122.91364572328702 -15.706934269555468 0
vt 124.1927827059855 -17.768744464307126 0
vt 124.91824169424596 -19.906916809162844 0
vt 125.43371575019863 -22.293310898722194 0
vt 125.31922877665325 -24.870583976317715 0
vt 124.30118785911041 -28.246937461236907 0
vt 122.93700873367769 -30.48110623440808 0
vt 121.4146343109888 -32.141909347486724 0
vt 119.3386873144513 -33.70388198578335 0
vt 117.14410273822801 -34.830845586746584 0
vt 114.25751202994111 -35.42400569581807 0
vt 113.84229785918437 -35.443806347771066 0
vt 113.83652114272199 -107.4161150403933 0
vt 74.71293685603746 -107.41655535587984 0
vt 74.7129968245253 -112.74496705219384 0
vt 80.4921273547046 -118.51899171484533 0
vt 73.64054157595967 -125.46473682720251 0
vt 78.11756142946331 -129.9105482920075 0
vt 110.7443058962476 -129.91018109505643 0
vt 110.74430213091838 -129.57561831187516 0
vt 113.87353449682804 -129.5755830940009 0
vt 113.57307740645723 -189.18679185180073 0
vt 113.88415707538995 -189.1867883507617 0
vt 113.88444447886711 -214.72360117314892 0
vt 77.37843988742993 -214.72401202914452 0
vt 77.38685216345932 -221.0747982397251 0
vt 73.97249326555321 -221.07483666654943 0
vt 73.97249686167224 -221.3943645290228 0
vt 73.63471230976783 -221.39436833061131 0
vt 68.66917889846954 -221.37083370855143 0
vt 68.66917598684593 -221.11212568008463 0
vt 65.25728711162755 -221.1121640791101 0
vt 65.25721571097817 -214.76796450182542 0
vt 28.730627597143254 -214.7683755894778 0
vt 28.73047388299707 -201.11033144153893 0
vt 27.640549523964278 -201.11034370806775 0
vt 27.640032379404893 -155.16022526881665 0
vt 28.73081587676385 -155.16021299261868 0
vt 28.730528040189235 -129.58491793270525 0
vt 52.85155249591481 -129.58464646318598 0
vt 52.85148447302278 -123.54057254117542 0
vt 36.23782549592037 -123.54075951922124 0
vt 36.237712741513604 -113.52213271321381 0
vt 52.89726402420541 -113.52194521867408 0
vt 52.8971951383415 -107.40119320105319 0
vt 28.806526903473806 -107.40146432892908 0
vt 28.806379252289236 -94.28213570892676 0
vt 26.784532660487287 -93.59524157446583 0
vt 26.783906771802222 -37.98282394998479 0
vt 27.066590218374298 -37.19556368222023 0
vt 28.239962775116915 -37.5854202895032 0
vt 28.788611369099883 -35.931000077786216 0
vt 73.75459935400971 -29.15313858679747 0
vt 67.0024312255245 -22.386186424870985 0
vt 90.00623758316372 -22.41474380978949 0
vt 112.45988474716776 -189.1894175926112 0
vt 42.177722014534694 -46.59178948880389 0
vt 42.20086356203674 -44.86893050473404 0
vt 49.146316430230236 -44.8379591549776 0
vt 70.63187574187126 -30.944394359207685 0
vt 75.421462364447 -32.05900639253743 0
vt 93.47478885769998 -22.419049738656934 0
vt 113.84156465725741 -44.57879432327358 0
vt 112.20355918606852 -47.81924701431859 0
vt 113.84152832911319 -45.03140791897902 0
vt 113.84007171619909 -63.179398214493986 0
vt 112.18587382944483 -69.95763099710759 0
vt 113.8400151726116 -63.88387671198383 0
vt 113.83998475541893 -64.2628455595447 0
vt 112.49460987276814 -167.06810879228325 0
vt 113.59618186806885 -184.602826525281 0
vt 78.1321537973398 -189.19073466646262 0
vt 33.87361924811946 -107.40140730145392 0
vt 78.15340026285247 -69.97480300959734 0
vt 49.1308722862709 -46.64576535442763 0
vt 78.22539034252861 -47.83831567944093 0
vt 72.29873875230854 -33.850262164947644 0
vt 103.68226214234174 -46.08565322887402 0
vt 106.8049857544802 -44.2943974564638 0
vt 113.84209823312119 -37.93095432123501 0
vt 113.84165021712138 -43.51280104099643 0
vt 109.78916581575189 -47.829118480375584 0
vt 110.72878217191627 -131.0084464301896 0
vt 110.71708036448841 -131.3596193527523 0
vt 95.15328469505144 -146.93228523518752 0
vt 78.14876550662659 -167.0768361380558 0
vt 79.24089720652074 -131.0137050578182 0
vt 48.08462507683827 -123.54062618968571 0
vt 48.07700210372658 -123.53096096930769 0
vt 48.07695631531545 -119.46249911238733 0
vt 49.3173350606936 -119.03522217762563 0
vt 48.07694544366672 -118.49651477073655 0
vt 49.2842053683838 -117.98214254018328 0
vt 48.07693500982393 -117.56943103089255 0
vt 48.07688945809778 -113.52199946946963 0
vt 79.35136955911338 -129.91053440614206 0
vt 103.41340497623843 -129.91026360051353 0
vt 52.9173339192482 -119.03235540146699 0
vt 52.92000161372916 -122.38235433928864 0
vt 49.32000275517456 -122.38522111544728 0
vt 52.8842042269384 -117.97927576402464 0
vt 49.28153767390284 -114.63214360236162 0
vt 52.88153653245744 -114.62927682620298 0
vt 103.30195577895296 -47.85356954054096 0
vt 105.47351791475195 -49.20837684101248 0
vt 108.59624152689041 -47.417121068602256 0
vt 104.93298967836007 -50.64195621689377 0
vn 0 0 1
vn 0 0 -1
usemtl floor_1
s off
f 1/1/1 133/67/1 3/2/1
f 4/2/2 134/67/2 2/1/2
f 5/3/1 3/2/1 7/4/1
f 8/4/2 4/2/2 6/3/2
f 7/4/1 3/2/1 9/5/1
f 10/5/2 4/2/2 8/4/2
f 9/5/1 135/68/1 137/69/1
f 138/69/2 136/68/2 10/5/2
f 137/69/1 135/68/1 139/70/1
f 140/70/2 136/68/2 138/69/2
f 23/12/1 21/11/1 17/9/1
f 18/9/2 22/11/2 24/12/2
f 23/12/1 17/9/1 35/18/1
f 36/18/2 18/9/2 24/12/2
f 23/12/1 35/18/1 27/14/1
f 28/14/2 36/18/2 24/12/2
f 23/12/1 27/14/1 25/13/1
f 26/13/2 28/14/2 24/12/2
f 27/14/1 35/18/1 31/16/1
f 32/16/2 36/18/2 28/14/2
f 27/14/1 31/16/1 29/15/1
f 30/15/2 32/16/2 28/14/2
f 31/16/1 35/18/1 33/17/1
f 34/17/2 36/18/2 32/16/2
f 35/18/1 17/9/1 45/23/1
f 46/23/2 18/9/2 36/18/2
f 35/18/1 45/23/1 43/22/1
f 44/22/2 46/23/2 36/18/2
f 35/18/1 43/22/1 41/21/1
f 42/21/2 44/22/2 36/18/2
f 35/18/1 41/21/1 39/20/1
f 40/20/2 42/21/2 36/18/2
f 35/18/1 39/20/1 37/19/1
f 38/19/2 40/20/2 36/18/2
f 77/39/1 75/38/1 73/37/1
f 74/37/2 76/38/2 78/39/2
f 77/39/1 73/37/1 141/71/1
f 142/71/2 74/37/2 78/39/2
f 77/39/1 141/71/1 79/40/1
f 80/40/2 142/71/2 78/39/2
f 81/41/1 79/40/1 83/42/1
f 84/42/2 80/40/2 82/41/2
f 85/43/1 83/42/1 87/44/1
f 88/44/2 84/42/2 86/43/2
f 87/44/1 83/42/1 91/46/1
f 92/46/2 84/42/2 88/44/2
f 87/44/1 91/46/1 89/45/1
f 90/45/2 92/46/2 88/44/2
f 93/47/1 91/46/1 95/48/1
f 96/48/2 92/46/2 94/47/2
f 97/49/1 95/48/1 99/50/1
f 100/50/2 96/48/2 98/49/2
f 101/51/1 99/50/1 103/52/1
f 104/52/2 100/50/2 102/51/2
f 125/63/1 123/62/1 143/72/1
f 144/72/2 124/62/2 126/63/2
f 125/63/1 143/72/1 127/64/1
f 128/64/2 144/72/2 126/63/2
f 127/64/1 143/72/1 131/66/1
f 132/66/2 144/72/2 128/64/2
f 127/64/1 131/66/1 129/65/1
f 130/65/2 132/66/2 128/64/2
f 133/67/1 131/66/1 145/73/1
f 146/73/2 132/66/2 134/67/2
f 133/67/1 145/73/1 3/2/1
f 4/2/2 146/73/2 134/67/2
f 3/2/1 145/73/1 147/74/1
f 148/74/2 146/73/2 4/2/2
f 3/2/1 147/74/1 9/5/1
f 10/5/2 148/74/2 4/2/2
f 9/5/1 147/74/1 149/75/1
f 150/75/2 148/74/2 10/5/2
f 9/5/1 149/75/1 135/68/1
f 136/68/2 150/75/2 10/5/2
f 135/68/1 151/76/1 11/6/1
f 12/6/2 152/76/2 136/68/2
f 135/68/1 11/6/1 153/77/1
f 154/77/2 12/6/2 136/68/2
f 135/68/1 153/77/1 139/70/1
f 140/70/2 154/77/2 136/68/2
f 15/8/1 13/7/1 17/9/1
f 18/9/2 14/7/2 16/8/2
f 17/9/1 13/7/1 53/27/1
f 54/27/2 14/7/2 18/9/2
f 17/9/1 53/27/1 47/24/1
f 48/24/2 54/27/2 18/9/2
f 17/9/1 47/24/1 45/23/1
f 46/23/2 48/24/2 18/9/2
f 155/78/1 157/79/1 159/80/1
f 160/80/2 158/79/2 156/78/2
f 159/80/1 157/79/1 161/81/1
f 162/81/2 158/79/2 160/80/2
f 161/81/1 157/79/1 163/82/1
f 164/82/2 158/79/2 162/81/2
f 161/81/1 163/82/1 165/83/1
f 166/83/2 164/82/2 162/81/2
f 165/83/1 163/82/1 167/84/1
f 168/84/2 164/82/2 166/83/2
f 167/84/1 163/82/1 55/28/1
f 56/28/2 164/82/2 168/84/2
f 71/36/1 169/85/1 171/86/1
f 172/86/2 170/85/2 72/36/2
f 169/85/1 73/37/1 171/86/1
f 172/86/2 74/37/2 170/85/2
f 73/37/1 169/85/1 141/71/1
f 142/71/2 170/85/2 74/37/2
f 141/71/1 173/87/1 79/40/1
f 80/40/2 174/87/2 142/71/2
f 79/40/1 173/87/1 95/48/1
f 96/48/2 174/87/2 80/40/2
f 79/40/1 95/48/1 83/42/1
f 84/42/2 96/48/2 80/40/2
f 83/42/1 95/48/1 91/46/1
f 92/46/2 96/48/2 84/42/2
f 95/48/1 173/87/1 99/50/1
f 100/50/2 174/87/2 96/48/2
f 99/50/1 173/87/1 105/53/1
f 106/53/2 174/87/2 100/50/2
f 99/50/1 105/53/1 103/52/1
f 104/52/2 106/53/2 100/50/2
f 107/54/1 105/53/1 109/55/1
f 110/55/2 106/53/2 108/54/2
f 123/62/1 121/61/1 175/88/1
f 176/88/2 122/61/2 124/62/2
f 175/88/1 119/60/1 123/62/1
f 124/62/2 120/60/2 176/88/2
f 123/62/1 119/60/1 177/89/1
f 178/89/2 120/60/2 124/62/2
f 123/62/1 177/89/1 179/90/1
f 180/90/2 178/89/2 124/62/2
f 123/62/1 179/90/1 143/72/1
f 144/72/2 180/90/2 124/62/2
f 143/72/1 145/73/1 131/66/1
f 132/66/2 146/73/2 144/72/2
f 147/74/1 179/90/1 181/91/1
f 182/91/2 180/90/2 148/74/2
f 147/74/1 181/91/1 183/92/1
f 184/92/2 182/91/2 148/74/2
f 147/74/1 183/92/1 149/75/1
f 150/75/2 184/92/2 148/74/2
f 151/76/1 183/92/1 181/91/1
f 182/91/2 184/92/2 152/76/2
f 151/76/1 181/91/1 185/93/1
f 186/93/2 182/91/2 152/76/2
f 151/76/1 185/93/1 11/6/1
f 12/6/2 186/93/2 152/76/2
f 11/6/1 185/93/1 187/94/1
f 188/94/2 186/93/2 12/6/2
f 11/6/1 187/94/1 53/27/1
f 54/27/2 188/94/2 12/6/2
f 11/6/1 53/27/1 13/7/1
f 14/7/2 54/27/2 12/6/2
f 53/27/1 187/94/1 157/79/1
f 158/79/2 188/94/2 54/27/2
f 53/27/1 157/79/1 189/95/1
f 190/95/2 158/79/2 54/27/2
f 53/27/1 51/26/1 47/24/1
f 48/24/2 52/26/2 54/27/2
f 47/24/1 51/26/1 49/25/1
f 50/25/2 52/26/2 48/24/2
f 191/96/1 157/79/1 155/78/1
f 156/78/2 158/79/2 192/96/2
f 189/95/1 157/79/1 191/96/1
f 192/96/2 158/79/2 190/95/2
f 157/79/1 187/94/1 193/97/1
f 194/97/2 188/94/2 158/79/2
f 163/82/1 177/89/1 55/28/1
f 56/28/2 178/89/2 164/82/2
f 55/28/1 177/89/1 57/29/1
f 58/29/2 178/89/2 56/28/2
f 71/36/1 69/35/1 67/34/1
f 68/34/2 70/35/2 72/36/2
f 71/36/1 67/34/1 195/98/1
f 196/98/2 68/34/2 72/36/2
f 71/36/1 195/98/1 197/99/1
f 198/99/2 196/98/2 72/36/2
f 71/36/1 197/99/1 169/85/1
f 170/85/2 198/99/2 72/36/2
f 169/85/1 197/99/1 199/100/1
f 200/100/2 198/99/2 170/85/2
f 169/85/1 199/100/1 201/101/1
f 202/101/2 200/100/2 170/85/2
f 201/101/1 199/100/1 203/102/1
f 204/102/2 200/100/2 202/101/2
f 201/101/1 203/102/1 109/55/1
f 110/55/2 204/102/2 202/101/2
f 201/101/1 109/55/1 105/53/1
f 106/53/2 110/55/2 202/101/2
f 201/101/1 105/53/1 173/87/1
f 174/87/2 106/53/2 202/101/2
f 109/55/1 203/102/1 65/33/1
f 66/33/2 204/102/2 110/55/2
f 109/55/1 65/33/1 63/32/1
f 64/32/2 66/33/2 110/55/2
f 109/55/1 63/32/1 111/56/1
f 112/56/2 64/32/2 110/55/2
f 205/103/1 111/56/1 207/104/1
f 208/104/2 112/56/2 206/103/2
f 205/103/1 207/104/1 113/57/1
f 114/57/2 208/104/2 206/103/2
f 209/105/1 207/104/1 211/106/1
f 212/106/2 208/104/2 210/105/2
f 213/107/1 209/105/1 211/106/1
f 212/106/2 210/105/2 214/107/2
f 213/107/1 211/106/1 215/108/1
f 216/108/2 212/106/2 214/107/2
f 217/109/1 213/107/1 215/108/1
f 216/108/2 214/107/2 218/109/2
f 219/110/1 217/109/1 215/108/1
f 216/108/2 218/109/2 220/110/2
f 119/60/1 117/59/1 59/30/1
f 60/30/2 118/59/2 120/60/2
f 119/60/1 59/30/1 57/29/1
f 58/29/2 60/30/2 120/60/2
f 119/60/1 57/29/1 177/89/1
f 178/89/2 58/29/2 120/60/2
f 61/31/1 59/30/1 63/32/1
f 64/32/2 60/30/2 62/31/2
f 65/33/1 203/102/1 221/111/1
f 222/111/2 204/102/2 66/33/2
f 221/111/1 203/102/1 223/112/1
f 224/112/2 204/102/2 222/111/2
f 203/102/1 67/34/1 223/112/1
f 224/112/2 68/34/2 204/102/2
f 67/34/1 203/102/1 195/98/1
f 196/98/2 204/102/2 68/34/2
f 63/32/1 59/30/1 225/113/1
f 226/113/2 60/30/2 64/32/2
f 63/32/1 225/113/1 227/114/1
f 228/114/2 226/113/2 64/32/2
f 63/32/1 227/114/1 111/56/1
f 112/56/2 228/114/2 64/32/2
f 111/56/1 227/114/1 229/115/1
f 230/115/2 228/114/2 112/56/2
f 111/56/1 229/115/1 207/104/1
f 208/104/2 230/115/2 112/56/2
f 207/104/1 229/115/1 211/106/1
f 212/106/2 230/115/2 208/104/2
f 211/106/1 225/113/1 231/116/1
f 232/116/2 226/113/2 212/106/2
f 211/106/1 231/116/1 215/108/1
f 216/108/2 232/116/2 212/106/2
f 215/108/1 233/117/1 219/110/1
f 220/110/2 234/117/2 216/108/2
f 219/110/1 233/117/1 117/59/1
f 118/59/2 234/117/2 220/110/2
f 117/59/1 233/117/1 235/118/1
f 236/118/2 234/117/2 118/59/2
f 117/59/1 235/118/1 59/30/1
f 60/30/2 236/118/2 118/59/2
f 59/30/1 235/118/1 231/116/1
f 232/116/2 236/118/2 60/30/2
f 59/30/1 231/116/1 225/113/1
f 226/113/2 232/116/2 60/30/2
f 177/89/1 181/91/1 179/90/1
f 180/90/2 182/91/2 178/89/2
f 181/91/1 237/119/1 185/93/1
f 186/93/2 238/119/2 182/91/2
f 185/93/1 237/119/1 239/120/1
f 240/120/2 238/119/2 186/93/2
f 187/94/1 241/121/1 193/97/1
f 194/97/2 242/121/2 188/94/2
f 193/97/1 241/121/1 239/120/1
f 240/120/2 242/121/2 194/97/2
f 193/97/1 239/120/1 243/122/1
f 244/122/2 240/120/2 194/97/2
f 243/122/1 239/120/1 237/119/1
f 238/119/2 240/120/2 244/122/2
f 17/9/1 21/11/1 19/10/1
f 20/10/2 22/11/2 18/9/2
