# The Great Editor v0.0.1
mtllib floor_1.mtl
o floor_1
v 74.24988500531944 -13.091282151053672 0
v 74.24988500531944 -13.091282151053672 -0.1
v 74.35144421007055 -112.45667150083631 0
v 74.35144421007055 -112.45667150083631 -0.1
v 178.87584329890984 -112.59283823844272 0
v 178.87584329890984 -112.59283823844272 -0.1
v 178.86395882722175 -11.87572744929504 0
v 178.86395882722175 -11.87572744929504 -0.1
v 100.1814098006134 -61.21518076902038 0
v 100.1814098006134 -61.21518076902038 -0.1
v 100.1814098006134 -59.115180769020384 0
v 100.1814098006134 -59.115180769020384 -0.1
v 102.78140980061339 -59.115180769020384 0
v 102.78140980061339 -59.115180769020384 -0.1
v 102.78140980061339 -61.21518076902038 0
v 102.78140980061339 -61.21518076902038 -0.1
vt 74.24988500531944 -13.091282151053672 0
vt 74.35144421007055 -112.45667150083631 0
vt 178.87584329890984 -112.59283823844272 0
vt 178.86395882722175 -11.87572744929504 0
vt 100.1814098006134 -61.21518076902038 0
vt 100.1814098006134 -59.115180769020384 0
vt 102.78140980061339 -59.115180769020384 0
vt 102.78140980061339 -61.21518076902038 0
vn 0 0 1
vn 0 0 -1
usemtl floor_1
s off
f 1/1/1 3/2/1 9/5/1
f 10/5/2 4/2/2 2/1/2
f 1/1/1 9/5/1 11/6/1
f 12/6/2 10/5/2 2/1/2
f 1/1/1 11/6/1 13/7/1
f 14/7/2 12/6/2 2/1/2
f 1/1/1 13/7/1 7/4/1
f 8/4/2 14/7/2 2/1/2
f 7/4/1 13/7/1 15/8/1
f 16/8/2 14/7/2 8/4/2
f 7/4/1 15/8/1 5/3/1
f 6/3/2 16/8/2 8/4/2
f 5/3/1 15/8/1 3/2/1
f 4/2/2 16/8/2 6/3/2
f 3/2/1 15/8/1 9/5/1
f 10/5/2 16/8/2 4/2/2
