# The Great Editor v0.0.1
mtllib floor_1.mtl
o floor_1
v 28.809714119501734 -22.36691916158502 0
v 28.809714119501734 -22.36691916158502 -0.1
v 113.77098253610615 -22.37031598983623 0
v 113.77098253610615 -22.37031598983623 -0.1
v 113.76758342723288 -107.38862719111636 0
v 113.76758342723288 -107.38862719111636 -0.1
v 74.70003836750017 -107.38706523537773 0
v 74.70003836750017 -107.38706523537773 -0.1
v 74.69982514054507 -112.72028529403484 0
v 74.69982514054507 -112.72028529403484 -0.1
v 80.50359157707568 -118.51799839499803 0
v 80.50359157707568 -118.51799839499803 -0.1
v 73.60148875910964 -125.4274677296558 0
v 73.60148875910964 -125.4274677296558 -0.1
v 78.11665979136012 -129.90053137816236 0
v 78.11665979136012 -129.90053137816236 -0.1
v 110.73616275310657 -129.9018355353538 0
v 110.73616275310657 -129.9018355353538 -0.1
v 110.73617524469553 -129.5893966465617 0
v 110.73617524469553 -129.5893966465617 -0.1
v 113.89644362371479 -129.58952299694596 0
v 113.89644362371479 -129.58952299694596 -0.1
v 113.89303988775636 -214.72356658015727 0
v 113.89303988775636 -214.72356658015727 -0.1
v 28.728687945365365 -214.72016163244325 0
v 28.728687945365365 -214.72016163244325 -0.1
v 28.729709396478867 -189.1716864637289 0
v 28.729709396478867 -189.1716864637289 -0.1
v 27.642883171004677 -189.17164301143475 0
v 27.642883171004677 -189.17164301143475 -0.1
v 27.644244153228698 -155.13083567770641 0
v 27.644244153228698 -155.13083567770641 -0.1
v 28.741581948360576 -155.13087955026262 0
v 28.741581948360576 -155.13087955026262 -0.1
v 28.742602560350846 -129.60339248229818 0
v 28.742602560350846 -129.60339248229818 -0.1
v 52.83060024082562 -129.6043555422025 0
v 52.83060024082562 -129.6043555422025 -0.1
v 52.83084280627437 -123.53732280574198 0
v 52.83084280627437 -123.53732280574198 -0.1
v 36.26159570911828 -123.53666035227714 0
v 36.26159570911828 -123.53666035227714 -0.1
v 36.261996676936924 -113.50767685757081 0
v 36.261996676936924 -113.50767685757081 -0.1
v 52.85030475373895 -113.50834007311084 0
v 52.85030475373895 -113.50834007311084 -0.1
v 52.85054905767172 -107.39782447683304 0
v 52.85054905767172 -107.39782447683304 -0.1
v 28.799236755302296 -107.39686288364324 0
v 28.799236755302296 -107.39686288364324 -0.1
v 28.799762194933827 -94.25459772628751 0
v 28.799762194933827 -94.25459772628751 -0.1
v 26.79635380016048 -93.58657745252746 0
v 26.79635380016048 -93.58657745252746 -0.1
v 26.798577656018928 -37.963625529021286 0
v 26.798577656018928 -37.963625529021286 -0.1
v 27.07832098380255 -37.201793181970515 0
v 27.07832098380255 -37.201793181970515 -0.1
v 28.2627495962428 -37.57843503936776 0
v 28.2627495962428 -37.57843503936776 -0.1
v 28.812045366570104 -35.921273002959346 0
v 28.812045366570104 -35.921273002959346 -0.1
v 70.63187574187126 -30.944394359207685 0
v 70.63187574187126 -30.944394359207685 -0.1
v 73.75459935400971 -29.15313858679747 0
v 73.75459935400971 -29.15313858679747 -0.1
v 75.421462364447 -32.05900639253743 0
v 75.421462364447 -32.05900639253743 -0.1
v 103.68226214234174 -46.08565322887402 0
v 103.68226214234174 -46.08565322887402 -0.1
v 106.8049857544802 -44.2943974564638 0
v 106.8049857544802 -44.2943974564638 -0.1
v 112.19645366295994 -47.80670995413807 0
v 112.19645366295994 -47.80670995413807 -0.1
v 112.18701870900144 -69.95588330800413 0
v 112.18701870900144 -69.95588330800413 -0.1
v 112.47784557814819 -167.06489402083156 0
v 112.47784557814819 -167.06489402083156 -0.1
v 112.46627623734183 -189.13989064602657 0
v 112.46627623734183 -189.13989064602657 -0.1
v 78.13436831771205 -189.1431080774294 0
v 78.13436831771205 -189.1431080774294 -0.1
v 72.29873875230854 -33.850262164947644 0
v 72.29873875230854 -33.850262164947644 -0.1
v 78.19492369264425 -47.827074452919135 0
v 78.19492369264425 -47.827074452919135 -0.1
v 103.31389564744748 -47.84002688296954 0
v 103.31389564744748 -47.84002688296954 -0.1
v 105.47351791475195 -49.20837684101248 0
v 105.47351791475195 -49.20837684101248 -0.1
v 108.59624152689041 -47.417121068602256 0
v 108.59624152689041 -47.417121068602256 -0.1
v 109.79063492036701 -47.825534592745825 0
v 109.79063492036701 -47.825534592745825 -0.1
v 78.1512215287179 -69.96356247601064 0
v 78.1512215287179 -69.96356247601064 -0.1
v 110.71593684752027 -130.99465254862974 0
v 110.71593684752027 -130.99465254862974 -0.1
v 110.7159226328569 -131.35018887301837 0
v 110.7159226328569 -131.35018887301837 -0.1
v 95.14671897131001 -146.93093620782602 0
v 95.14671897131001 -146.93093620782602 -0.1
v 78.16338725499389 -167.05833639008773 0
v 78.16338725499389 -167.05833639008773 -0.1
v 33.89360632497406 -107.39706656114004 0
v 33.89360632497406 -107.39706656114004 -0.1
v 104.92345594323032 -50.62653316252427 0
v 104.92345594323032 -50.62653316252427 -0.1
v 79.26090436770161 -131.02352811442017 0
v 79.26090436770161 -131.02352811442017 -0.1
v 79.37249270639083 -129.90058158749662 0
v 79.37249270639083 -129.90058158749662 -0.1
v 103.88500621647341 -129.90156161992726 0
v 103.88500621647341 -129.90156161992726 -0.1
v 48.082591599067754 -123.53713296636994 0
v 48.082591599067754 -123.53713296636994 -0.1
v 49.32000275517456 -122.38522111544728 0
v 49.32000275517456 -122.38522111544728 -0.1
v 49.3173350606936 -119.03522217762563 0
v 49.3173350606936 -119.03522217762563 -0.1
v 48.08279248743723 -118.51252488532855 0
v 48.08279248743723 -118.51252488532855 -0.1
v 49.2842053683838 -117.98214254018328 0
v 49.2842053683838 -117.98214254018328 -0.1
v 48.08283019654808 -117.5693468228291 0
v 48.08283019654808 -117.5693468228291 -0.1
v 48.08299256688639 -113.50814947166363 0
v 48.08299256688639 -113.50814947166363 -0.1
v 52.88153653245744 -114.62927682620298 0
v 52.88153653245744 -114.62927682620298 -0.1
v 52.8842042269384 -117.97927576402464 0
v 52.8842042269384 -117.97927576402464 -0.1
v 52.9173339192482 -119.03235540146699 0
v 52.9173339192482 -119.03235540146699 -0.1
v 52.92000161372916 -122.38235433928864 0
v 52.92000161372916 -122.38235433928864 -0.1
v 49.28153767390284 -114.63214360236162 0
v 49.28153767390284 -114.63214360236162 -0.1
vt 28.809714119501734 -22.36691916158502 0
vt 113.77098253610615 -22.37031598983623 0
vt 113.76758342723288 -107.38862719111636 0
vt 74.70003836750017 -107.38706523537773 0
vt 74.69982514054507 -112.72028529403484 0
vt 80.50359157707568 -118.51799839499803 0
vt 73.60148875910964 -125.4274677296558 0
vt 78.11665979136012 -129.90053137816236 0
vt 110.73616275310657 -129.9018355353538 0
vt 110.73617524469553 -129.5893966465617 0
vt 113.89644362371479 -129.58952299694596 0
vt 113.89303988775636 -214.72356658015727 0
vt 28.728687945365365 -214.72016163244325 0
vt 28.729709396478867 -189.1716864637289 0
vt 27.642883171004677 -189.17164301143475 0
vt 27.644244153228698 -155.13083567770641 0
vt 28.741581948360576 -155.13087955026262 0
vt 28.742602560350846 -129.60339248229818 0
vt 52.83060024082562 -129.6043555422025 0
vt 52.83084280627437 -123.53732280574198 0
vt 36.26159570911828 -123.53666035227714 0
vt 36.261996676936924 -113.50767685757081 0
vt 52.85030475373895 -113.50834007311084 0
vt 52.85054905767172 -107.39782447683304 0
vt 28.799236755302296 -107.39686288364324 0
vt 28.799762194933827 -94.25459772628751 0
vt 26.79635380016048 -93.58657745252746 0
vt 26.798577656018928 -37.963625529021286 0
vt 27.07832098380255 -37.201793181970515 0
vt 28.2627495962428 -37.57843503936776 0
vt 28.812045366570104 -35.921273002959346 0
vt 70.63187574187126 -30.944394359207685 0
vt 73.75459935400971 -29.15313858679747 0
vt 75.421462364447 -32.05900639253743 0
vt 103.68226214234174 -46.08565322887402 0
vt 106.8049857544802 -44.2943974564638 0
vt 112.19645366295994 -47.80670995413807 0
vt 112.18701870900144 -69.95588330800413 0
vt 112.47784557814819 -167.06489402083156 0
vt 112.46627623734183 -189.13989064602657 0
vt 78.13436831771205 -189.1431080774294 0
vt 72.29873875230854 -33.850262164947644 0
vt 78.19492369264425 -47.827074452919135 0
vt 103.31389564744748 -47.84002688296954 0
vt 105.47351791475195 -49.20837684101248 0
vt 108.59624152689041 -47.417121068602256 0
vt 109.79063492036701 -47.825534592745825 0
vt 78.1512215287179 -69.96356247601064 0
vt 110.71593684752027 -130.99465254862974 0
vt 110.7159226328569 -131.35018887301837 0
vt 95.14671897131001 -146.93093620782602 0
vt 78.16338725499389 -167.05833639008773 0
vt 33.89360632497406 -107.39706656114004 0
vt 104.92345594323032 -50.62653316252427 0
vt 79.26090436770161 -131.02352811442017 0
vt 79.37249270639083 -129.90058158749662 0
vt 103.88500621647341 -129.90156161992726 0
vt 48.082591599067754 -123.53713296636994 0
vt 49.32000275517456 -122.38522111544728 0
vt 49.3173350606936 -119.03522217762563 0
vt 48.08279248743723 -118.51252488532855 0
vt 49.2842053683838 -117.98214254018328 0
vt 48.08283019654808 -117.5693468228291 0
vt 48.08299256688639 -113.50814947166363 0
vt 52.88153653245744 -114.62927682620298 0
vt 52.8842042269384 -117.97927576402464 0
vt 52.9173339192482 -119.03235540146699 0
vt 52.92000161372916 -122.38235433928864 0
vt 49.28153767390284 -114.63214360236162 0
vn 0 0 1
vn 0 0 -1
usemtl floor_1
s off
f 1/1/1 61/31/1 63/32/1
f 64/32/2 62/31/2 2/1/2
f 1/1/1 63/32/1 65/33/1
f 66/33/2 64/32/2 2/1/2
f 1/1/1 65/33/1 3/2/1
f 4/2/2 66/33/2 2/1/2
f 3/2/1 65/33/1 67/34/1
f 68/34/2 66/33/2 4/2/2
f 3/2/1 67/34/1 69/35/1
f 70/35/2 68/34/2 4/2/2
f 3/2/1 69/35/1 71/36/1
f 72/36/2 70/35/2 4/2/2
f 3/2/1 71/36/1 73/37/1
f 74/37/2 72/36/2 4/2/2
f 3/2/1 73/37/1 75/38/1
f 76/38/2 74/37/2 4/2/2
f 3/2/1 75/38/1 5/3/1
f 6/3/2 76/38/2 4/2/2
f 23/12/1 21/11/1 77/39/1
f 78/39/2 22/11/2 24/12/2
f 23/12/1 77/39/1 79/40/1
f 80/40/2 78/39/2 24/12/2
f 23/12/1 79/40/1 81/41/1
f 82/41/2 80/40/2 24/12/2
f 23/12/1 81/41/1 25/13/1
f 26/13/2 82/41/2 24/12/2
f 25/13/1 81/41/1 27/14/1
f 28/14/2 82/41/2 26/13/2
f 29/15/1 27/14/1 31/16/1
f 32/16/2 28/14/2 30/15/2
f 53/27/1 51/26/1 59/30/1
f 60/30/2 52/26/2 54/27/2
f 53/27/1 59/30/1 55/28/1
f 56/28/2 60/30/2 54/27/2
f 55/28/1 59/30/1 57/29/1
f 58/29/2 60/30/2 56/28/2
f 61/31/1 59/30/1 83/42/1
f 84/42/2 60/30/2 62/31/2
f 61/31/1 83/42/1 63/32/1
f 64/32/2 84/42/2 62/31/2
f 67/34/1 83/42/1 85/43/1
f 86/43/2 84/42/2 68/34/2
f 67/34/1 85/43/1 69/35/1
f 70/35/2 86/43/2 68/34/2
f 69/35/1 85/43/1 87/44/1
f 88/44/2 86/43/2 70/35/2
f 69/35/1 87/44/1 89/45/1
f 90/45/2 88/44/2 70/35/2
f 71/36/1 91/46/1 93/47/1
f 94/47/2 92/46/2 72/36/2
f 71/36/1 93/47/1 73/37/1
f 74/37/2 94/47/2 72/36/2
f 75/38/1 95/48/1 5/3/1
f 6/3/2 96/48/2 76/38/2
f 5/3/1 95/48/1 7/4/1
f 8/4/2 96/48/2 6/3/2
f 21/11/1 19/10/1 17/9/1
f 18/9/2 20/10/2 22/11/2
f 21/11/1 17/9/1 97/49/1
f 98/49/2 18/9/2 22/11/2
f 21/11/1 97/49/1 99/50/1
f 100/50/2 98/49/2 22/11/2
f 21/11/1 99/50/1 77/39/1
f 78/39/2 100/50/2 22/11/2
f 77/39/1 99/50/1 101/51/1
f 102/51/2 100/50/2 78/39/2
f 77/39/1 101/51/1 103/52/1
f 104/52/2 102/51/2 78/39/2
f 81/41/1 103/52/1 27/14/1
f 28/14/2 104/52/2 82/41/2
f 27/14/1 103/52/1 33/17/1
f 34/17/2 104/52/2 28/14/2
f 27/14/1 33/17/1 31/16/1
f 32/16/2 34/17/2 28/14/2
f 35/18/1 33/17/1 37/19/1
f 38/19/2 34/17/2 36/18/2
f 51/26/1 49/25/1 105/53/1
f 106/53/2 50/25/2 52/26/2
f 105/53/1 47/24/1 51/26/1
f 52/26/2 48/24/2 106/53/2
f 51/26/1 47/24/1 95/48/1
f 96/48/2 48/24/2 52/26/2
f 51/26/1 95/48/1 59/30/1
f 60/30/2 96/48/2 52/26/2
f 59/30/1 95/48/1 85/43/1
f 86/43/2 96/48/2 60/30/2
f 59/30/1 85/43/1 83/42/1
f 84/42/2 86/43/2 60/30/2
f 87/44/1 107/54/1 89/45/1
f 90/45/2 108/54/2 88/44/2
f 89/45/1 107/54/1 93/47/1
f 94/47/2 108/54/2 90/45/2
f 89/45/1 93/47/1 91/46/1
f 92/46/2 94/47/2 90/45/2
f 95/48/1 47/24/1 7/4/1
f 8/4/2 48/24/2 96/48/2
f 7/4/1 47/24/1 9/5/1
f 10/5/2 48/24/2 8/4/2
f 11/6/1 9/5/1 13/7/1
f 14/7/2 10/5/2 12/6/2
f 15/8/1 109/55/1 111/56/1
f 112/56/2 110/55/2 16/8/2
f 111/56/1 109/55/1 113/57/1
f 114/57/2 110/55/2 112/56/2
f 109/55/1 17/9/1 113/57/1
f 114/57/2 18/9/2 110/55/2
f 17/9/1 109/55/1 97/49/1
f 98/49/2 110/55/2 18/9/2
f 101/51/1 109/55/1 103/52/1
f 104/52/2 110/55/2 102/51/2
f 103/52/1 109/55/1 37/19/1
f 38/19/2 110/55/2 104/52/2
f 103/52/1 37/19/1 33/17/1
f 34/17/2 38/19/2 104/52/2
f 37/19/1 109/55/1 15/8/1
f 16/8/2 110/55/2 38/19/2
f 37/19/1 15/8/1 13/7/1
f 14/7/2 16/8/2 38/19/2
f 37/19/1 13/7/1 39/20/1
f 40/20/2 14/7/2 38/19/2
f 115/58/1 39/20/1 117/59/1
f 118/59/2 40/20/2 116/58/2
f 115/58/1 117/59/1 119/60/1
f 120/60/2 118/59/2 116/58/2
f 121/61/1 115/58/1 119/60/1
f 120/60/2 116/58/2 122/61/2
f 121/61/1 123/62/1 125/63/1
f 126/63/2 124/62/2 122/61/2
f 121/61/1 119/60/1 123/62/1
f 124/62/2 120/60/2 122/61/2
f 125/63/1 123/62/1 127/64/1
f 128/64/2 124/62/2 126/63/2
f 47/24/1 45/23/1 9/5/1
f 10/5/2 46/23/2 48/24/2
f 9/5/1 45/23/1 129/65/1
f 130/65/2 46/23/2 10/5/2
f 9/5/1 129/65/1 131/66/1
f 132/66/2 130/65/2 10/5/2
f 9/5/1 131/66/1 133/67/1
f 134/67/2 132/66/2 10/5/2
f 9/5/1 133/67/1 13/7/1
f 14/7/2 134/67/2 10/5/2
f 13/7/1 133/67/1 135/68/1
f 136/68/2 134/67/2 14/7/2
f 13/7/1 135/68/1 39/20/1
f 40/20/2 136/68/2 14/7/2
f 39/20/1 135/68/1 117/59/1
f 118/59/2 136/68/2 40/20/2
f 119/60/1 133/67/1 131/66/1
f 132/66/2 134/67/2 120/60/2
f 119/60/1 131/66/1 123/62/1
f 124/62/2 132/66/2 120/60/2
f 123/62/1 137/69/1 127/64/1
f 128/64/2 138/69/2 124/62/2
f 127/64/1 137/69/1 45/23/1
f 46/23/2 138/69/2 128/64/2
f 45/23/1 137/69/1 129/65/1
f 130/65/2 138/69/2 46/23/2
