# The Great Editor v0.0.1
mtllib floor_1.mtl
o floor_1
v 7.0927152317880795 -1.607589045999642 0
v 7.0927152317880795 -1.607589045999642 -0.1
v 166.05609450510113 -1.5819939144442454 0
v 166.05609450510113 -1.5819939144442454 -0.1
v 166.05051011276177 -235.4778951136567 0
v 166.05051011276177 -235.4778951136567 -0.1
v 7.049865759799534 -235.51412206908898 0
v 7.049865759799534 -235.51412206908898 -0.1
v 49.2842053683838 -117.98214254018328 0
v 49.2842053683838 -117.98214254018328 -0.1
v 49.28153767390284 -114.63214360236162 0
v 49.28153767390284 -114.63214360236162 -0.1
v 70.63187574187126 -30.944394359207685 0
v 70.63187574187126 -30.944394359207685 -0.1
v 73.75459935400971 -29.15313858679747 0
v 73.75459935400971 -29.15313858679747 -0.1
v 106.8049857544802 -44.2943974564638 0
v 106.8049857544802 -44.2943974564638 -0.1
v 108.59624152689041 -47.417121068602256 0
v 108.59624152689041 -47.417121068602256 -0.1
v 105.47351791475195 -49.20837684101248 0
v 105.47351791475195 -49.20837684101248 -0.1
v 52.92000161372916 -122.38235433928864 0
v 52.92000161372916 -122.38235433928864 -0.1
v 49.32000275517456 -122.38522111544728 0
v 49.32000275517456 -122.38522111544728 -0.1
v 49.3173350606936 -119.03522217762563 0
v 49.3173350606936 -119.03522217762563 -0.1
v 52.8842042269384 -117.97927576402464 0
v 52.8842042269384 -117.97927576402464 -0.1
v 52.88153653245744 -114.62927682620298 0
v 52.88153653245744 -114.62927682620298 -0.1
v 72.29873875230854 -33.850262164947644 0
v 72.29873875230854 -33.850262164947644 -0.1
v 75.421462364447 -32.05900639253743 0
v 75.421462364447 -32.05900639253743 -0.1
v 103.68226214234174 -46.08565322887402 0
v 103.68226214234174 -46.08565322887402 -0.1
v 52.9173339192482 -119.03235540146699 0
v 52.9173339192482 -119.03235540146699 -0.1
vt 7.0927152317880795 -1.607589045999642 0
vt 166.05609450510113 -1.5819939144442454 0
vt 166.05051011276177 -235.4778951136567 0
vt 7.049865759799534 -235.51412206908898 0
vt 49.2842053683838 -117.98214254018328 0
vt 49.28153767390284 -114.63214360236162 0
vt 70.63187574187126 -30.944394359207685 0
vt 73.75459935400971 -29.15313858679747 0
vt 106.8049857544802 -44.2943974564638 0
vt 108.59624152689041 -47.417121068602256 0
vt 105.47351791475195 -49.20837684101248 0
vt 52.92000161372916 -122.38235433928864 0
vt 49.32000275517456 -122.38522111544728 0
vt 49.3173350606936 -119.03522217762563 0
vt 52.8842042269384 -117.97927576402464 0
vt 52.88153653245744 -114.62927682620298 0
vt 72.29873875230854 -33.850262164947644 0
vt 75.421462364447 -32.05900639253743 0
vt 103.68226214234174 -46.08565322887402 0
vt 52.9173339192482 -119.03235540146699 0
vn 0 0 1
vn 0 0 -1
usemtl floor_1
s off
f 1/1/1 7/4/1 9/5/1
f 10/5/2 8/4/2 2/1/2
f 1/1/1 9/5/1 11/6/1
f 12/6/2 10/5/2 2/1/2
f 1/1/1 11/6/1 13/7/1
f 14/7/2 12/6/2 2/1/2
f 1/1/1 13/7/1 15/8/1
f 16/8/2 14/7/2 2/1/2
f 1/1/1 15/8/1 3/2/1
f 4/2/2 16/8/2 2/1/2
f 3/2/1 15/8/1 17/9/1
f 18/9/2 16/8/2 4/2/2
f 3/2/1 17/9/1 19/10/1
f 20/10/2 18/9/2 4/2/2
f 3/2/1 19/10/1 5/3/1
f 6/3/2 20/10/2 4/2/2
f 5/3/1 19/10/1 21/11/1
f 22/11/2 20/10/2 6/3/2
f 5/3/1 21/11/1 23/12/1
f 24/12/2 22/11/2 6/3/2
f 5/3/1 23/12/1 7/4/1
f 8/4/2 24/12/2 6/3/2
f 7/4/1 23/12/1 25/13/1
f 26/13/2 24/12/2 8/4/2
f 7/4/1 25/13/1 9/5/1
f 10/5/2 26/13/2 8/4/2
f 9/5/1 25/13/1 27/14/1
f 28/14/2 26/13/2 10/5/2
f 9/5/1 27/14/1 29/15/1
f 30/15/2 28/14/2 10/5/2
f 11/6/1 31/16/1 33/17/1
f 34/17/2 32/16/2 12/6/2
f 11/6/1 33/17/1 13/7/1
f 14/7/2 34/17/2 12/6/2
f 15/8/1 35/18/1 17/9/1
f 18/9/2 36/18/2 16/8/2
f 17/9/1 35/18/1 37/19/1
f 38/19/2 36/18/2 18/9/2
f 21/11/1 37/19/1 33/17/1
f 34/17/2 38/19/2 22/11/2
f 21/11/1 33/17/1 31/16/1
f 32/16/2 34/17/2 22/11/2
f 21/11/1 31/16/1 29/15/1
f 30/15/2 32/16/2 22/11/2
f 21/11/1 29/15/1 39/20/1
f 40/20/2 30/15/2 22/11/2
f 21/11/1 39/20/1 23/12/1
f 24/12/2 40/20/2 22/11/2
f 27/14/1 39/20/1 29/15/1
f 30/15/2 40/20/2 28/14/2
f 33/17/1 37/19/1 35/18/1
f 36/18/2 38/19/2 34/17/2
